<svg xmlns="http://www.w3.org/2000/svg"  viewBox="0 0 50 50" width="32px" height="32px"><path d="M18.04 24.97c.23-.24.46-.47.7-.71.23-.24.47-.48.7-.72l-7.18-7.28c-.52-.53-1.22-.83-1.96-.83s-1.44.3-1.96.83l-6.53 6.63c-1.08 1.08-1.08 2.85 0 3.94l7.77 7.88c.06-.38.17-.74.32-1.09.14-.31.31-.61.53-.89.12-.18.27-.35.43-.52 1.51-1.54 3.02-3.06 4.54-4.58C16.28 26.74 17.16 25.86 18.04 24.97zM48.21 14.53L41.59 7.8c-1.02-1.03-2.81-1.03-3.84 0L21.3 24.51c-.15.15-.29.3-.45.45v.01c-.23.24-.47.48-.7.71h-.01l-.7.71-1.26 1.28-1.37 1.37c-1.51 1.52-3.02 3.04-4.52 4.57-.17.17-.31.36-.43.57-.19.33-.31.7-.35 1.07-.02.23-.01.46.03.68.02.13.05.26.09.39.02.08.05.17.09.25.03.08.07.16.11.24.06.13.14.26.24.38.05.07.11.13.17.2l.17.19 6.47 6.57.05.05c.06.06.13.12.2.18.13.1.26.19.4.27.4.23.85.35 1.32.35.57 0 1.11-.18 1.56-.51.07-.05.13-.1.19-.15.06-.04.11-.09.16-.14l.04-.05 6.54-6.63 18.87-19.15C49.26 17.31 49.26 15.59 48.21 14.53z"/></svg>